<svg width="371" height="231" viewBox="0 0 371 231" fill="none" xmlns="http://www.w3.org/2000/svg">
<path d="M239.548 224.219C243.897 228.472 249.104 230.598 255.168 230.598C259.088 230.598 262.702 229.626 266.009 227.682C269.317 225.677 271.982 223.034 274.003 219.753C276.086 216.411 277.157 212.736 277.219 208.726C277.157 202.771 274.922 197.668 270.511 193.415C266.101 189.162 260.987 187.036 255.168 187.036C249.104 187.036 243.897 189.162 239.548 193.415C235.199 197.668 233.055 202.771 233.117 208.726C233.055 214.741 235.199 219.905 239.548 224.219Z" fill="#2F3133"/>
<path d="M161.955 182.541C183.797 182.02 200.978 180.424 220.518 175.637V223.002C191.621 229.705 172.357 230.598 133.059 230.598H113.409V207.809V182.786V41.5836H220.518V88.949H161.955V182.541Z" fill="#2F3133"/>
<path d="M49.6164 182.573C66.5401 181.915 82.5637 180.292 100.808 176.34L100.808 223.483C70.4868 230.154 50.4039 230.598 18.9015 230.598H0V207.472V183.011V41.5836H100.808V88.7261H49.6164V182.573Z" fill="#2F3133"/>
<path d="M280.44 181L246.44 171.485C249.137 162.188 252.006 154.335 255.046 147.926C258.203 141.438 262.017 135.86 266.486 131.192C271.045 126.548 276.566 122.23 283.051 118.237C288.447 115.056 293.25 111.933 297.463 108.867C301.676 105.802 305.251 102.447 308.188 98.8014C311.154 95.0524 313.362 90.5884 314.811 85.4097C316.492 79.4023 317.083 74.2068 316.585 69.8232C316.204 65.3609 314.748 61.6587 312.217 58.7165C309.774 55.7992 306.242 53.6938 301.619 52.4003C297.797 51.3307 293.966 51.3196 290.127 52.3671C286.316 53.3111 282.793 55.4525 279.558 58.7913C276.413 62.155 273.897 67.0353 272.011 73.4321L233.344 62.6112C237.581 48.496 243.657 37.5756 251.57 29.85C259.601 22.0456 268.773 17.1852 279.086 15.2688C289.428 13.2488 300.243 13.8184 311.532 16.9776C323.977 20.4602 333.977 25.8275 341.533 33.0795C349.117 40.2279 353.99 49.0187 356.15 59.4517C358.34 69.7811 357.623 81.4193 354 94.3662C351.478 103.377 347.72 110.981 342.727 117.179C337.763 123.273 331.996 128.639 325.426 133.278C318.856 137.917 311.739 142.627 304.075 147.407C297.53 151.271 292.512 155.842 289.023 161.12C285.622 166.423 282.761 173.05 280.44 181Z" fill="#2F3133"/>
</svg>
