<svg width="61" height="61" viewBox="0 0 61 61" fill="none" xmlns="http://www.w3.org/2000/svg">
<path fill-rule="evenodd" clip-rule="evenodd" d="M30.75 60.5C47.3185 60.5 60.75 47.0685 60.75 30.5C60.75 13.9315 47.3185 0.5 30.75 0.5C14.1815 0.5 0.75 13.9315 0.75 30.5C0.75 47.0685 14.1815 60.5 30.75 60.5ZM26.2047 36.3397C24.011 36.8148 22.0843 37.01 20.0494 37.0891V25.8049H26.2047V20.1365H14.0835V37.1418V40.083V42.8637H16.3562C20.1441 42.8637 22.5589 42.8103 26.2047 42.0081V36.3397ZM33.5571 37.0853C36.1835 37.0227 38.2493 36.8308 40.5988 36.2551V41.9504C37.1243 42.7563 34.8079 42.8637 30.0826 42.8637H27.72V40.1236V37.1148V20.1365H40.5988V25.8317H33.5571V37.0853ZM47.2179 35.8505V20.1365H42.3017V35.8505H47.2179ZM44.7651 42.8637C44.036 42.8637 43.4099 42.6081 42.887 42.0967C42.3641 41.578 42.1063 40.957 42.1137 40.2338C42.1063 39.5179 42.3641 38.9042 42.887 38.3928C43.4099 37.8814 44.036 37.6258 44.7651 37.6258C45.4648 37.6258 46.0798 37.8814 46.6101 38.3928C47.1404 38.9042 47.4092 39.5179 47.4166 40.2338C47.4092 40.716 47.2803 41.1579 47.0299 41.5597C46.7868 41.9542 46.4665 42.272 46.0687 42.5131C45.671 42.7469 45.2365 42.8637 44.7651 42.8637Z" fill="#8E9499"/>
</svg>
