<svg width="40" height="40" viewBox="0 0 40 40" fill="none" xmlns="http://www.w3.org/2000/svg">
<rect width="40" height="40" rx="20" fill="#2F3133"/>
<path d="M30.9781 12.4243V22.9003H27.7006V12.4243H30.9781Z" fill="white"/>
<path d="M28.0909 27.0645C28.4395 27.4054 28.8568 27.5758 29.3429 27.5758C29.6572 27.5758 29.9469 27.4979 30.212 27.3421C30.4771 27.1813 30.6907 26.9695 30.8528 26.7065C31.0197 26.4386 31.1056 26.144 31.1105 25.8225C31.1056 25.3452 30.9264 24.9361 30.5729 24.5952C30.2194 24.2543 29.8094 24.0838 29.3429 24.0838C28.8568 24.0838 28.4395 24.2543 28.0909 24.5952C27.7422 24.9361 27.5704 25.3452 27.5753 25.8225C27.5704 26.3047 27.7422 26.7187 28.0909 27.0645Z" fill="white"/>
<path d="M21.8709 23.7235C23.6218 23.6818 24.999 23.5539 26.5654 23.1701V26.9669C24.249 27.5042 22.7048 27.5758 19.5546 27.5758H17.9795V25.7491V23.7432V12.4243H26.5654V16.2212H21.8709V23.7235Z" fill="white"/>
<path d="M12.8659 23.7261C14.2226 23.6733 15.507 23.5432 16.9695 23.2265V27.0054C14.5389 27.5402 12.9291 27.5758 10.4038 27.5758H8.88867V25.722V23.7612V12.4243H16.9695V16.2033L12.8659 16.2033V23.7261Z" fill="white"/>
</svg>
